<?xml version="1.0" encoding="UTF-8" standalone="no"?>
<!-- Created with Inkscape (http://www.inkscape.org/) -->

<svg
   xmlns:dc="http://purl.org/dc/elements/1.1/"
   xmlns:cc="http://creativecommons.org/ns#"
   xmlns:rdf="http://www.w3.org/1999/02/22-rdf-syntax-ns#"
   xmlns:svg="http://www.w3.org/2000/svg"
   xmlns="http://www.w3.org/2000/svg"
   xmlns:xlink="http://www.w3.org/1999/xlink"
   xmlns:sodipodi="http://sodipodi.sourceforge.net/DTD/sodipodi-0.dtd"
   xmlns:inkscape="http://www.inkscape.org/namespaces/inkscape"
   width="800"
   height="691.42859"
   id="svg2"
   version="1.1"
   inkscape:version="0.48.5 r10040"
   sodipodi:docname="hassis-ideia.svg">
  <defs
     id="defs4">
    <linearGradient
       inkscape:collect="always"
       x1="171.85001"
       y1="169.45"
       gradientTransform="matrix(0.93651,0,0,0.93651,11.278,11.556)"
       x2="171.58"
       gradientUnits="userSpaceOnUse"
       y2="180.39999"
       id="linearGradient12125">
      <stop
         offset="0"
         style="stop-color:#eeeeec"
         id="stop11490" />
      <stop
         offset="1"
         style="stop-color:#eeeeec;stop-opacity:0"
         id="stop11492" />
    </linearGradient>
    <linearGradient
       inkscape:collect="always"
       x1="172.92"
       y1="151.38"
       gradientTransform="translate(0.25,0.25)"
       x2="172.92"
       gradientUnits="userSpaceOnUse"
       y2="175.12"
       id="linearGradient12123">
      <stop
         offset="0"
         style="stop-color:#eeeeec"
         id="stop11500" />
      <stop
         offset="1"
         style="stop-color:#eeeeec;stop-opacity:0"
         id="stop11502" />
    </linearGradient>
    <linearGradient
       inkscape:collect="always"
       x1="171.39999"
       y1="141.8"
       gradientTransform="translate(-1.2374,56.922)"
       x2="170.97"
       gradientUnits="userSpaceOnUse"
       y2="168.64999"
       id="linearGradient12121">
      <stop
         offset="0"
         style="stop-color:#eeeeec"
         id="stop11516" />
      <stop
         offset="1"
         style="stop-color:#eeeeec;stop-opacity:0"
         id="stop11518" />
    </linearGradient>
    <filter
       inkscape:collect="always"
       x="-0.022909001"
       y="-0.252"
       width="1.0458"
       height="1.5039999"
       id="filter12117"
       color-interpolation-filters="sRGB">
      <feGaussianBlur
         inkscape:collect="always"
         stdDeviation="0.6825"
         id="feGaussianBlur12119" />
    </filter>
    <filter
       inkscape:collect="always"
       id="filter12104"
       color-interpolation-filters="sRGB">
      <feGaussianBlur
         inkscape:collect="always"
         stdDeviation="0.809375"
         id="feGaussianBlur12106" />
    </filter>
    <filter
       inkscape:collect="always"
       id="filter12047"
       color-interpolation-filters="sRGB">
      <feGaussianBlur
         inkscape:collect="always"
         stdDeviation="0.7734375"
         id="feGaussianBlur12049" />
    </filter>
    <linearGradient
       inkscape:collect="always"
       x1="200"
       y1="95.014"
       x2="201.37"
       gradientUnits="userSpaceOnUse"
       y2="88.296997"
       id="linearGradient11951">
      <stop
         offset="0"
         style="stop-color:#75507b"
         id="stop11373" />
      <stop
         offset="1"
         style="stop-color:#75507b;stop-opacity:0"
         id="stop11375" />
    </linearGradient>
    <linearGradient
       inkscape:collect="always"
       x1="183.03"
       y1="94.837997"
       x2="183.03"
       gradientUnits="userSpaceOnUse"
       y2="82.462997"
       id="linearGradient11949">
      <stop
         offset="0"
         style="stop-color:#3465a4"
         id="stop11357" />
      <stop
         offset="1"
         style="stop-color:#3465a4;stop-opacity:0"
         id="stop11359" />
    </linearGradient>
    <linearGradient
       inkscape:collect="always"
       x1="166.23"
       y1="94.129997"
       x2="166.23"
       gradientUnits="userSpaceOnUse"
       y2="84.708"
       id="linearGradient11947">
      <stop
         offset="0"
         style="stop-color:#4e9a06"
         id="stop11345" />
      <stop
         offset="1"
         style="stop-color:#4e9a06;stop-opacity:0"
         id="stop11347" />
    </linearGradient>
    <linearGradient
       inkscape:collect="always"
       x1="149.62"
       y1="43.705002"
       gradientTransform="translate(50.381,35.355)"
       x2="149.44"
       gradientUnits="userSpaceOnUse"
       xlink:href="#linearGradient11300"
       y2="52.728001"
       id="linearGradient11945" />
    <linearGradient
       inkscape:collect="always"
       x1="149.62"
       y1="43.705002"
       gradientTransform="translate(33.588,9.0156)"
       x2="149.44"
       gradientUnits="userSpaceOnUse"
       xlink:href="#linearGradient11300"
       y2="52.728001"
       id="linearGradient11943" />
    <linearGradient
       inkscape:collect="always"
       x1="149.62"
       y1="43.705002"
       gradientTransform="translate(16.971,18.385)"
       x2="149.44"
       gradientUnits="userSpaceOnUse"
       xlink:href="#linearGradient11300"
       y2="52.728001"
       id="linearGradient11941" />
    <linearGradient
       inkscape:collect="always"
       x1="149.44"
       y1="93.954002"
       x2="149.44"
       gradientUnits="userSpaceOnUse"
       y2="83.789001"
       id="linearGradient11939">
      <stop
         offset="0"
         style="stop-color:#ce5c00"
         id="stop11321" />
      <stop
         offset="1"
         style="stop-color:#ce5c00;stop-opacity:0"
         id="stop11323" />
    </linearGradient>
    <linearGradient
       inkscape:collect="always"
       x1="149.62"
       y1="43.705002"
       x2="149.44"
       gradientUnits="userSpaceOnUse"
       xlink:href="#linearGradient11300"
       y2="52.728001"
       id="linearGradient11937" />
    <radialGradient
       inkscape:collect="always"
       r="25.75"
       cx="91.5"
       cy="81.75"
       gradientUnits="userSpaceOnUse"
       id="radialGradient11811">
      <stop
         offset="0"
         style="stop-color:#000000"
         id="stop10880" />
      <stop
         offset="1"
         style="stop-color:#000000;stop-opacity:0"
         id="stop10882" />
    </radialGradient>
    <linearGradient
       inkscape:collect="always"
       x1="91.5"
       y1="59.312"
       gradientTransform="matrix(0.92929,0,0,0.92929,-6.7803,-16.22)"
       x2="91.5"
       gradientUnits="userSpaceOnUse"
       y2="87.449997"
       id="linearGradient11809">
      <stop
         offset="0"
         style="stop-color:#eeeeec"
         id="stop10889" />
      <stop
         offset="1"
         style="stop-color:#eeeeec;stop-opacity:0"
         id="stop10891" />
    </linearGradient>
    <linearGradient
       inkscape:collect="always"
       id="linearGradient11300">
      <stop
         offset="0"
         style="stop-color:#eeeeec"
         id="stop11302" />
      <stop
         offset="1"
         style="stop-color:#eeeeec;stop-opacity:0"
         id="stop11304" />
    </linearGradient>
  </defs>
  <sodipodi:namedview
     id="base"
     pagecolor="#ffffff"
     bordercolor="#666666"
     borderopacity="1.0"
     inkscape:pageopacity="0.0"
     inkscape:pageshadow="2"
     inkscape:zoom="0.77621035"
     inkscape:cx="608.13896"
     inkscape:cy="309.27536"
     inkscape:document-units="px"
     inkscape:current-layer="layer1"
     showgrid="false"
     inkscape:window-width="1920"
     inkscape:window-height="992"
     inkscape:window-x="0"
     inkscape:window-y="0"
     inkscape:window-maximized="1"
     fit-margin-top="0"
     fit-margin-left="0"
     fit-margin-right="0"
     fit-margin-bottom="0" />
  <metadata
     id="metadata7">
    <rdf:RDF>
      <cc:Work
         rdf:about="">
        <dc:format>image/svg+xml</dc:format>
        <dc:type
           rdf:resource="http://purl.org/dc/dcmitype/StillImage" />
        <dc:title />
      </cc:Work>
    </rdf:RDF>
  </metadata>
  <g
     inkscape:label="Layer 1"
     inkscape:groupmode="layer"
     id="layer1"
     transform="translate(1297.1428,-80.933609)">
    <rect
       style="fill:#ffffff;fill-opacity:1;stroke:none"
       id="rect2985"
       width="800"
       height="691.42859"
       x="-1297.1428"
       y="80.933609"
       inkscape:export-xdpi="200"
       inkscape:export-ydpi="200" />
    <rect
       y="343.79074"
       x="-1297.1428"
       height="162.85716"
       width="800"
       id="rect2987"
       style="fill:#1a1a1a;fill-opacity:1;stroke:none" />
    <text
       xml:space="preserve"
       style="font-size:64.34999084px;font-style:normal;font-weight:normal;line-height:125%;letter-spacing:0px;word-spacing:0px;fill:#000000;fill-opacity:1;stroke:none;font-family:Sans"
       x="-979.22919"
       y="242.13852"
       id="text2989"
       sodipodi:linespacing="125%"><tspan
         sodipodi:role="line"
         id="tspan2991"
         x="-979.22919"
         y="242.13852"
         style="font-style:italic">Hassis</tspan></text>
    <rect
       style="fill:#333333;fill-opacity:1;stroke:none"
       id="rect2993"
       width="257.97098"
       height="162.85716"
       x="-1026.5839"
       y="343.79074" />
    <text
       sodipodi:linespacing="125%"
       id="text2995"
       y="734.44006"
       x="-1174.0226"
       style="font-size:26.49841881px;font-style:normal;font-weight:normal;line-height:125%;letter-spacing:0px;word-spacing:0px;fill:#000000;fill-opacity:1;stroke:none;font-family:Sans"
       xml:space="preserve"><tspan
         style="font-style:normal"
         y="734.44006"
         x="-1174.0226"
         id="tspan2997"
         sodipodi:role="line">Sobre</tspan></text>
    <rect
       y="343.79074"
       x="-768.98145"
       height="162.85716"
       width="270.72461"
       id="rect2999"
       style="fill:#4d4d4d;fill-opacity:1;stroke:none" />
    <text
       sodipodi:linespacing="125%"
       id="text3001"
       y="415.29529"
       x="-1163.2845"
       style="font-size:26.39395523px;font-style:normal;font-weight:normal;line-height:125%;letter-spacing:0px;word-spacing:0px;fill:#ffffff;fill-opacity:1;stroke:none;font-family:Sans"
       xml:space="preserve"><tspan
         style="font-style:normal;text-align:center;text-anchor:middle;fill:#ffffff"
         y="415.29529"
         x="-1163.2845"
         id="tspan3003"
         sodipodi:role="line">Internação</tspan><tspan
         style="font-style:normal;text-align:center;text-anchor:middle;fill:#ffffff"
         y="448.28772"
         x="-1163.2845"
         sodipodi:role="line"
         id="tspan3005">Compulsória</tspan></text>
    <text
       xml:space="preserve"
       style="font-size:26.39395523px;font-style:normal;font-weight:normal;line-height:125%;letter-spacing:0px;word-spacing:0px;fill:#ffffff;fill-opacity:1;stroke:none;font-family:Sans"
       x="-635.83112"
       y="390.69901"
       id="text3007"
       sodipodi:linespacing="125%"><tspan
         id="tspan3011"
         sodipodi:role="line"
         x="-635.83112"
         y="390.69901"
         style="font-style:normal;text-align:center;text-anchor:middle;fill:#ffffff">Visualizações</tspan></text>
    <text
       sodipodi:linespacing="125%"
       id="text3026"
       y="431.69281"
       x="-900.01331"
       style="font-size:26.39395523px;font-style:normal;font-weight:normal;line-height:125%;letter-spacing:0px;word-spacing:0px;fill:#ffffff;fill-opacity:1;stroke:none;font-family:Sans"
       xml:space="preserve"><tspan
         style="font-style:normal;text-align:center;text-anchor:middle;fill:#ffffff"
         y="431.69281"
         x="-900.01331"
         sodipodi:role="line"
         id="tspan3038">Detentos</tspan></text>
    <g
       id="g3361"
       transform="matrix(0.45036864,0,0,0.45036864,-680.86214,413.87956)">
      <path
         d="m 103.2,19.231 76.12,0.102"
         style="fill:none;stroke:#7f7f7f;stroke-width:0.5;stroke-dasharray:0.5, 0.5"
         id="path11393"
         inkscape:connector-curvature="0" />
      <path
         d="m 103.2,69.356 76.12,0.102"
         style="fill:none;stroke:#7f7f7f;stroke-width:0.5;stroke-dasharray:0.5, 0.5"
         id="path11399"
         inkscape:connector-curvature="0" />
      <g
         transform="translate(-36.679,-23.042)"
         id="g11799">
        <rect
           x="36.679001"
           y="23.042"
           width="81.362"
           height="75.601997"
           ry="4.5044999"
           rx="3.6387999"
           style="fill:#e8e8e8;fill-rule:evenodd"
           id="rect1540" />
        <g
           transform="matrix(-0.023758,-0.47096,0.47096,-0.023758,121.49,204)"
           id="g3643">
          <path
             sodipodi:cx="331.375"
             sodipodi:cy="32.875"
             transform="matrix(1.1176,0,0,1.1176,-12.235,-111.37)"
             d="m 335.625,32.875 c 0,2.34721 -1.90279,4.25 -4.25,4.25 -2.34721,0 -4.25,-1.90279 -4.25,-4.25 0,-2.34721 1.90279,-4.25 4.25,-4.25 2.34721,0 4.25,1.90279 4.25,4.25 z"
             sodipodi:type="arc"
             style="fill:#729fcf"
             sodipodi:ry="4.25"
             sodipodi:rx="4.25"
             id="path3309" />
          <path
             sodipodi:start="0"
             sodipodi:end="1.3565628"
             sodipodi:cx="307.25"
             sodipodi:cy="-76.75"
             d="m 363.5,-76.75 c 0,26.457776 -18.43839,49.33922 -44.29133,54.964104 L 307.25,-76.75 z"
             sodipodi:type="arc"
             style="fill:#729fcf"
             sodipodi:ry="56.25"
             sodipodi:rx="56.25"
             id="path3637" />
          <path
             d="m 324.77766,-23.300551 c -29.51931,9.68026 -61.29685,-6.402472 -70.97711,-35.921787 -9.6627,-29.465764 6.34381,-61.193672 35.78468,-70.931952"
             sodipodi:end="4.3929433"
             sodipodi:cx="307.25"
             sodipodi:cy="-76.75"
             sodipodi:open="true"
             sodipodi:start="1.2539169"
             sodipodi:type="arc"
             style="fill:#73d216"
             sodipodi:ry="56.25"
             sodipodi:rx="56.25"
             id="path3639" />
          <path
             sodipodi:start="4.0168594"
             sodipodi:end="6.4344716"
             sodipodi:cx="307.25"
             sodipodi:cy="-76.75"
             d="m 271.20544,-119.93394 c 23.84984,-19.90686 59.32164,-16.71045 79.2285,7.13938 10.32914,12.37505 14.85292,28.586768 12.42357,44.521989 L 307.25,-76.75 z"
             sodipodi:type="arc"
             style="fill:#f57900"
             sodipodi:ry="56.25"
             sodipodi:rx="56.25"
             id="path3641" />
        </g>
        <path
           d="m 101.25,59.75 c 0,12.696 -7.804,-1 -17.5,-4.25 -12.038,-4.035 -28.5,16.946 -28.5,4.25 0,-12.696 10.304,-23 23,-23 12.696,0 23,10.304 23,23 z"
           style="opacity:0.40500004;fill:url(#linearGradient11809)"
           sodipodi:nodetypes="csssc"
           id="path10341"
           inkscape:connector-curvature="0" />
        <path
           sodipodi:cx="91.5"
           sodipodi:cy="81.75"
           transform="matrix(1.0694,0,0,1.0694,-19.81,-26.331)"
           d="m 116.25,81.75 c 0,13.669048 -11.08095,24.75 -24.75,24.75 C 77.830952,106.5 66.75,95.419048 66.75,81.75 66.75,68.080952 77.830952,57 91.5,57 c 13.66905,0 24.75,11.080952 24.75,24.75 z"
           sodipodi:type="arc"
           style="opacity:0.40500004;fill:none;stroke:url(#radialGradient11811);stroke-width:3.74060011;stroke-linecap:round;stroke-linejoin:bevel"
           sodipodi:ry="24.75"
           sodipodi:rx="24.75"
           id="path10343" />
      </g>
      <g
         transform="translate(-29.265,-23.042)"
         id="g11917">
        <rect
           x="129.92999"
           y="24.042"
           width="87.725998"
           height="75.601997"
           ry="4.5044999"
           rx="3.9233999"
           style="fill:#e8e8e8;fill-rule:evenodd"
           id="rect10895" />
        <g
           transform="translate(0.2013,0)"
           id="g11883">
          <rect
             x="135.06"
             y="34.839001"
             width="76.367996"
             height="60.458"
             ry="4.5044999"
             rx="3.9233999"
             style="opacity:0.89084999;fill:none;stroke:#979998;stroke-linecap:round;stroke-linejoin:bevel"
             id="rect11379" />
          <path
             d="M 135.88,54.805 212,54.906"
             style="fill:none;stroke:#7f7f7f;stroke-width:0.5;stroke-dasharray:0.5, 0.5"
             id="path11395"
             inkscape:connector-curvature="0" />
          <path
             d="m 135.75,67.336 76.13,0.102"
             style="fill:none;stroke:#7f7f7f;stroke-width:0.5;stroke-dasharray:0.5, 0.5"
             id="path11397"
             inkscape:connector-curvature="0" />
          <path
             d="m 136.25,79.867 76.13,0.102"
             style="fill:none;stroke:#7f7f7f;stroke-width:0.5;stroke-dasharray:0.5, 0.5"
             id="path11405"
             inkscape:connector-curvature="0" />
          <rect
             x="143.25"
             y="42"
             width="12.75"
             height="50.5"
             ry="4.5044999"
             rx="3.6387999"
             style="fill:#f57900"
             id="rect11277" />
          <rect
             x="160"
             y="60.75"
             width="12.75"
             height="31.75"
             ry="4.5044999"
             rx="3.6387999"
             style="fill:#73d216"
             id="rect11281" />
          <rect
             x="176.75"
             y="51"
             width="12.75"
             height="41.5"
             ry="3.9149001"
             rx="3.5014999"
             style="fill:#9ebbd9"
             id="rect11283" />
          <rect
             x="193.5"
             y="77.25"
             width="12.75"
             height="15.25"
             ry="5.25"
             style="fill:#ad7fa8"
             id="rect11285" />
          <path
             d="m 146.94,43.031 c -1.61,0 -3,1.565 -2.94,5.938 0.84,2.948 2.13,-0.142 5.31,-1.25 5.31,-1.849 4.08,3.648 5.57,1.25 0.06,-4.373 -1.34,-5.938 -2.94,-5.938 h -0.38 -4.25 -0.37 z"
             style="opacity:0.89084999;fill:url(#linearGradient11937)"
             sodipodi:nodetypes="ccsccccc"
             id="rect11287"
             inkscape:connector-curvature="0" />
          <path
             d="m 146.94,91.709 c -1.61,0 -3,-1.565 -2.94,-5.938 0.84,-2.948 2.13,0.142 5.31,1.25 5.31,1.849 4.08,-3.648 5.57,-1.25 0.06,4.373 -1.34,5.938 -2.94,5.938 h -0.38 -4.25 -0.37 z"
             style="opacity:0.89084999;fill:url(#linearGradient11939)"
             sodipodi:nodetypes="ccsccccc"
             id="path11315"
             inkscape:connector-curvature="0" />
          <path
             d="m 163.91,61.416 c -1.61,0 -3,1.565 -2.94,5.938 0.84,2.948 2.13,-0.143 5.31,-1.25 5.31,-1.85 4.08,3.647 5.57,1.25 0.06,-4.373 -1.33,-5.938 -2.94,-5.938 h -0.38 -4.25 -0.37 z"
             style="opacity:0.89084999;fill:url(#linearGradient11941)"
             sodipodi:nodetypes="ccsccccc"
             id="path11327"
             inkscape:connector-curvature="0" />
          <path
             d="m 180.53,52.047 c -1.61,0 -3,1.565 -2.94,5.937 0.84,2.949 2.13,-0.142 5.31,-1.25 5.31,-1.849 4.08,3.648 5.56,1.25 0.06,-4.372 -1.33,-5.937 -2.93,-5.937 h -0.38 -4.25 -0.37 z"
             style="opacity:0.89084999;fill:url(#linearGradient11943)"
             sodipodi:nodetypes="ccsccccc"
             id="path11331"
             inkscape:connector-curvature="0" />
          <path
             d="m 197.32,78.387 c -1.61,0 -3,1.564 -2.94,5.937 0.84,2.948 2.13,-0.142 5.31,-1.25 5.31,-1.849 4.08,3.648 5.57,1.25 0.06,-4.373 -1.33,-5.937 -2.94,-5.937 h -0.38 -4.25 -0.37 z"
             style="opacity:0.89084999;fill:url(#linearGradient11945)"
             sodipodi:nodetypes="ccsccccc"
             id="path11335"
             inkscape:connector-curvature="0" />
          <path
             d="m 163.73,91.886 c -1.61,0 -3,-1.565 -2.94,-5.938 0.84,-2.948 2.13,0.142 5.32,1.25 5.31,1.849 4.07,-3.648 5.56,-1.25 0.06,4.373 -1.33,5.938 -2.94,5.938 h -0.37 -4.25 -0.38 z"
             style="opacity:0.89084999;fill:url(#linearGradient11947)"
             sodipodi:nodetypes="ccsccccc"
             id="path11339"
             inkscape:connector-curvature="0" />
          <path
             d="m 180.53,91.886 c -1.61,0 -3,-1.565 -2.94,-5.938 0.84,-2.948 2.13,0.142 5.31,1.25 5.31,1.849 4.08,-3.648 5.56,-1.25 0.06,4.373 -1.33,5.938 -2.93,5.938 h -0.38 -4.25 -0.37 z"
             style="opacity:0.89084999;fill:url(#linearGradient11949)"
             sodipodi:nodetypes="ccsccccc"
             id="path11351"
             inkscape:connector-curvature="0" />
          <path
             d="m 197.5,91.886 c -1.61,0 -3,-1.565 -2.94,-5.938 0.84,-2.948 2.13,0.142 5.31,1.25 5.31,1.849 4.08,-3.648 5.56,-1.25 0.07,4.373 -1.33,5.938 -2.93,5.938 h -0.38 -4.25 -0.37 z"
             style="opacity:0.89084999;fill:url(#linearGradient11951)"
             sodipodi:nodetypes="ccsccccc"
             id="path11367"
             inkscape:connector-curvature="0" />
        </g>
      </g>
      <g
         transform="translate(-31.679,-23.042)"
         id="g11837">
        <rect
           x="132.34"
           y="114.84"
           width="87.725998"
           height="75.601997"
           ry="4.5044999"
           rx="3.9233999"
           style="fill:#e8e8e8;fill-rule:evenodd"
           id="rect11407" />
        <g
           transform="translate(2.1398,0)"
           id="g11813">
          <path
             d="m 138.25,170.75 13.75,-4.5 16.5,3 25.75,1.25 15.5,-1.25 -0.25,12.75 h -71 l -0.25,-11.25 z"
             style="fill-opacity:0"
             sodipodi:nodetypes="cccccccc"
             id="path11468"
             inkscape:connector-curvature="0" />
          <g
             transform="matrix(-1,0,0,1,347.9,-48.083)"
             id="g11541">
            <g
               transform="translate(1.0607,-9.7227)"
               id="g11535">
              <path
                 d="m 137.69,189.53 16.5,13.5 15,-1.25 21.75,4.5 17.75,-4.75 -0.25,37.75 h -71 l 0.25,-49.75 z"
                 style="fill:#f57900"
                 sodipodi:nodetypes="cccccccc"
                 id="rect11461"
                 inkscape:connector-curvature="0" />
              <path
                 d="m 139,193.69 -0.25,43.25 h 0.09 L 139,207.69 c 17.83,10.01 13.7,2.01 32.36,1.95 24.6,-0.09 14.37,12.24 35.3,0.52 l 0.09,-6.04 -16.94,4.13 -20.75,-3.91 -14.31,1.1 L 139,193.69 z"
                 style="opacity:0.83099;fill:url(#linearGradient12121)"
                 sodipodi:nodetypes="ccccscccccc"
                 id="path11512"
                 inkscape:connector-curvature="0" />
            </g>
          </g>
          <g
             transform="translate(-0.125,-0.125)"
             id="g11506">
            <path
               d="m 138.5,145 13.75,9.75 15.75,5.75 25.5,3.75 16.25,-6.75 -0.25,24.5 h -71 v -37 z"
               style="fill:#73d216"
               sodipodi:nodetypes="cccccccc"
               id="path11464"
               inkscape:connector-curvature="0" />
            <path
               d="m 139.88,150.16 c 16.21,9.63 39.05,16.89 55.11,15.06 3.35,-0.38 13.6,-6.07 13.6,-6.07 L 208.48,172 c 0,0 -14.01,1.09 -44.43,-6.62 -20.5,-5.23 -24.05,1.37 -24.05,1.37 0,0 -0.08,-9.51 -0.12,-16.59 z"
               style="fill:url(#linearGradient12123)"
               sodipodi:nodetypes="csccscc"
               id="path11496"
               inkscape:connector-curvature="0" />
          </g>
          <g
             transform="translate(0.125,0.5)"
             id="g11522">
            <path
               d="m 138.25,170.25 13.75,-4.5 16.5,3 25.75,1.25 15.5,-1.25 -0.25,12.75 h -71 l -0.25,-11.25 z"
               style="fill:#729fcf"
               sodipodi:nodetypes="cccccccc"
               id="path11466"
               inkscape:connector-curvature="0" />
            <path
               d="m 140.75,171.46 12.88,-4.21 15.45,2.81 24.11,1.17 14.52,-1.17 -0.23,11.94 c 0,0 -11.88,-9.5 -33.75,-4.25 -11.85,2.84 -32.75,4.25 -32.75,4.25 l -0.23,-10.54 z"
               style="fill:url(#linearGradient12125)"
               sodipodi:nodetypes="ccccccscc"
               id="path11486"
               inkscape:connector-curvature="0" />
          </g>
          <path
             d="m 142.84,124.62 c -2.71,0 -4.89,2.23 -4.89,5 v 52.04 c 0,0.34 0.03,0.68 0.09,1 0.38,-0.09 0.76,-0.15 1.16,-0.15 h 70.73 c 0.05,-0.27 0.07,-0.57 0.07,-0.85 v -52.04 c 0,-2.77 -2.19,-5 -4.9,-5 h -62.26 z"
             style="opacity:0.89084999;fill:none;stroke:#979998;stroke-width:0.98390001;stroke-linecap:round;stroke-linejoin:bevel"
             id="rect11409"
             inkscape:connector-curvature="0" />
          <path
             d="m 138.23,132.43 72.24,0.1"
             style="fill:none;stroke:#7f7f7f;stroke-width:0.49617001;stroke-dasharray:0.49617396, 0.49617396"
             id="path11411"
             inkscape:connector-curvature="0" />
          <path
             d="m 138.17,144.43 71,0.1"
             style="fill:none;stroke:#7f7f7f;stroke-width:0.49489;stroke-dasharray:0.4948934, 0.4948934"
             id="path11413"
             inkscape:connector-curvature="0" />
          <path
             d="m 137.87,157.14 71.89,0.1"
             style="fill:none;stroke:#7f7f7f;stroke-width:0.49581;stroke-dasharray:0.49581133, 0.49581133"
             id="path11415"
             inkscape:connector-curvature="0" />
          <path
             d="m 137.66,169.67 72.24,0.1"
             style="fill:none;stroke:#7f7f7f;stroke-width:0.49617001;stroke-dasharray:0.49617396, 0.49617396"
             id="path11419"
             inkscape:connector-curvature="0" />
        </g>
      </g>
      <rect
         x="0"
         y="91.5"
         width="81.362"
         height="75.601997"
         ry="4.5044999"
         rx="3.6387999"
         style="fill:#e8e8e8;fill-rule:evenodd"
         id="rect11778" />
      <path
         d="m 5.0706,146.21 13.75,-4.5 16.5,3 25.75,1.25 15.5,-1.25 -0.25,12.75 h -71 L 5.0702,146.21 z"
         style="fill-opacity:0"
         sodipodi:nodetypes="cccccccc"
         id="path11740"
         inkscape:connector-curvature="0" />
      <path
         d="m 75.977,104.68 -16.5,13.5 -15,-1.25 -21.75,4.5 -17.75,9.25 0.0311,4 17.719,-9.25 21.75,-4.5 15,1.25 16.5,-13.5 0.219,45.75 h 0.031 l -0.25,-49.75 z"
         style="fill:#f57900"
         sodipodi:nodetypes="ccccccccccccc"
         id="path11746"
         inkscape:connector-curvature="0" />
      <path
         d="m 18.946,140.21 -13.75,4.5 0.0933,3.97 13.657,-4.47 16.5,3 25.75,1.25 15.406,-1.25 0.094,-4 -15.5,1.25 -25.75,-1.25 -16.5,-3 z"
         style="fill:#729fcf"
         id="path11758"
         inkscape:connector-curvature="0" />
      <path
         d="m 9.6641,100.08 c -2.7105,0 -4.8927,2.23 -4.8927,5 v 52.04 c 0,0.33 0.0307,0.68 0.0918,1 0.3772,-0.1 0.7554,-0.16 1.162,-0.16 h 70.73 c 0.043,-0.27 0.061,-0.56 0.061,-0.84 v -52.04 c 0,-2.77 -2.182,-5 -4.893,-5 H 9.6642 z"
         style="opacity:0.89084999;fill:none;stroke:#979998;stroke-width:0.98390001;stroke-linecap:round;stroke-linejoin:bevel"
         id="path11762"
         inkscape:connector-curvature="0" />
      <path
         d="m 5.0524,107.89 72.24,0.1"
         style="fill:none;stroke:#7f7f7f;stroke-width:0.49617001;stroke-dasharray:0.49617396, 0.49617396"
         id="path11764"
         inkscape:connector-curvature="0" />
      <path
         d="m 4.9911,119.89 71.004,0.1"
         style="fill:none;stroke:#7f7f7f;stroke-width:0.49489;stroke-dasharray:0.4948934, 0.4948934"
         id="path11766"
         inkscape:connector-curvature="0" />
      <path
         d="m 4.6898,132.59 71.886,0.11"
         style="fill:none;stroke:#7f7f7f;stroke-width:0.49581;stroke-dasharray:0.49581133, 0.49581133"
         id="path11768"
         inkscape:connector-curvature="0" />
      <path
         d="m 4.4829,145.13 72.24,0.1"
         style="fill:none;stroke:#7f7f7f;stroke-width:0.49617001;stroke-dasharray:0.49617396, 0.49617396"
         id="path11770"
         inkscape:connector-curvature="0" />
      <path
         d="m 76.227,104.68 -16.5,13.5 -15,-1.25 -21.75,4.5 -17.75,9.25 -2e-4,2 17.75,-9.25 21.75,-4.5 15,1.25 16.5,-13.5 v -2 z m 0,2 v 2 -2 z"
         style="fill:#eeeeec;filter:url(#filter12047)"
         sodipodi:nodetypes="cccccccccccccc"
         id="path12008"
         inkscape:connector-curvature="0" />
      <g
         transform="translate(-33.429,-81.292)"
         id="g12108">
        <path
           d="m 38.875,199.12 v 4 l 13.75,9.76 15.75,5.74 25.5,3.76 16.215,-6.72 0.03,-4.04 -16.245,6.76 -25.5,-3.76 -15.75,-5.74 -13.75,-9.76 z"
           style="fill:#73d216"
           id="path11752"
           inkscape:connector-curvature="0" />
        <path
           d="m 39.375,199.38 v 2 l 13.75,9.74 15.75,5.76 25.5,3.74 16.245,-6.74 v -2 l -16.245,6.74 -25.5,-3.74 -15.75,-5.76 -13.75,-9.74 z"
           style="fill:#eeeeec;filter:url(#filter12104)"
           id="path12051"
           inkscape:connector-curvature="0" />
      </g>
      <path
         d="m 18.946,139.96 -13.75,4.5 0.0621,2 13.688,-4.5 16.5,3 25.75,1.25 15.437,-1.25 0.063,-2 -15.5,1.25 -25.75,-1.25 -16.5,-3 z"
         style="fill:#eeeeec;filter:url(#filter12117)"
         id="path12112"
         inkscape:connector-curvature="0" />
    </g>
    <text
       xml:space="preserve"
       style="font-size:26.49841881px;font-style:normal;font-weight:normal;line-height:125%;letter-spacing:0px;word-spacing:0px;fill:#000000;fill-opacity:1;stroke:none;font-family:Sans"
       x="-943.54633"
       y="731.64526"
       id="text3102"
       sodipodi:linespacing="125%"><tspan
         sodipodi:role="line"
         id="tspan3104"
         x="-943.54633"
         y="731.64526"
         style="font-style:normal">Logos: UFAL - IC - GSD</tspan></text>
    <text
       xml:space="preserve"
       style="font-size:27.63318443px;font-style:normal;font-weight:normal;line-height:125%;letter-spacing:0px;word-spacing:0px;fill:#000000;fill-opacity:1;stroke:none;font-family:Sans"
       x="-1266.8595"
       y="543.22894"
       id="text3108"
       sodipodi:linespacing="125%"><tspan
         sodipodi:role="line"
         id="tspan3110"
         x="-1266.8595"
         y="543.22894"
         style="fill:#d40000">leva à página</tspan><tspan
         sodipodi:role="line"
         x="-1266.8595"
         y="577.77045"
         id="tspan3112"
         style="fill:#d40000">de cadastro</tspan><tspan
         sodipodi:role="line"
         x="-1266.8595"
         y="612.31189"
         style="fill:#d40000"
         id="tspan3118">desse assunto</tspan></text>
    <text
       sodipodi:linespacing="125%"
       id="text3120"
       y="543.22894"
       x="-1001.4675"
       style="font-size:27.63318443px;font-style:normal;font-weight:normal;line-height:125%;letter-spacing:0px;word-spacing:0px;fill:#000000;fill-opacity:1;stroke:none;font-family:Sans"
       xml:space="preserve"><tspan
         style="fill:#d40000"
         y="543.22894"
         x="-1001.4675"
         id="tspan3122"
         sodipodi:role="line">leva à página</tspan><tspan
         style="fill:#d40000"
         id="tspan3124"
         y="577.77045"
         x="-1001.4675"
         sodipodi:role="line">de cadastro</tspan><tspan
         id="tspan3126"
         style="fill:#d40000"
         y="612.31189"
         x="-1001.4675"
         sodipodi:role="line">desse assunto</tspan></text>
    <text
       xml:space="preserve"
       style="font-size:27.63318443px;font-style:normal;font-weight:normal;line-height:125%;letter-spacing:0px;word-spacing:0px;fill:#000000;fill-opacity:1;stroke:none;font-family:Sans"
       x="-737.36389"
       y="543.22894"
       id="text3128"
       sodipodi:linespacing="125%"><tspan
         sodipodi:role="line"
         id="tspan3130"
         x="-737.36389"
         y="543.22894"
         style="fill:#d40000">leva às páginas</tspan><tspan
         sodipodi:role="line"
         x="-737.36389"
         y="577.77045"
         style="fill:#d40000"
         id="tspan3134">de visualizacoes:</tspan><tspan
         sodipodi:role="line"
         x="-737.36389"
         y="612.31189"
         style="fill:#d40000"
         id="tspan3144">   internacao</tspan><tspan
         sodipodi:role="line"
         x="-737.36389"
         y="646.85339"
         style="fill:#d40000"
         id="tspan3146">   detentos</tspan></text>
  </g>
</svg>
